<?xml version="1.0" encoding="utf-8"?>
<!-- Generator: Adobe Illustrator 19.0.0, SVG Export Plug-In . SVG Version: 6.00 Build 0)  -->
<svg version="1.1" id="Logo_Horizontal" xmlns:serif="http://www.serif.com/"
	 xmlns="http://www.w3.org/2000/svg" xmlns:xlink="http://www.w3.org/1999/xlink" x="0px" y="0px" viewBox="0 200 960 157.9"
	 style="enable-background:new 0 200 960 157.9;" xml:space="preserve">
<style type="text/css">
	.st0{fill:#E63976;}
	.st1{fill:#FAF7F5;}
	.st2{fill:#43434C;}
</style>
<g id="Isotipo">
	<path id="Oval" class="st0" d="M0,278.7c0.1-43.6,35.8-78.8,79.6-78.7s79.3,35.6,79.1,79.2c-0.1,43.6-35.8,78.8-79.6,78.7
		C35.3,357.8-0.1,322.3,0,278.7z"/>
	<g>
		<path id="Path" class="st1" d="M108.6,261.1c-1-15.2-13.7-27.3-29.3-27.3c-15.6,0-28.3,12.1-29.3,27.3v19.8c0,2.4,2,4.5,4.6,4.5
			c2.5,0,4.6-2,4.6-4.5v-4.7V263c0-11.1,9.1-20.1,20.2-20.1s20.2,9,20.2,20.1v17.9c0,2.4,2,4.5,4.6,4.5c2.5,0,4.6-2,4.6-4.5v-4.7
			v-15.1C108.8,261.1,108.6,261.1,108.6,261.1z"/>
		<g>
			<path id="Path1" serif:id="Path" class="st1" d="M129.4,277.1c0-2.1-1.8-3.8-3.9-3.8h-7.4c-1.8,0-3.4,1.2-3.8,3.1l-7.4,34.9
				c-0.3,1.3-1.8,2.5-3.2,2.5H54.9c-1.3,0-2.9-1.2-3.2-2.5l-7.4-34.9c-0.4-1.7-1.9-3.1-3.8-3.1h-7.4c-2.1,0-3.9,1.7-3.9,3.8
				c0,2.1,1.8,3.8,3.9,3.8h3.4c0.4,0,0.9,0.4,1,0.8l6.6,31c1.1,4.9,5.7,8.7,10.7,8.7h48.9c5,0,9.7-3.8,10.7-8.7l6.6-31
				c0.1-0.4,0.5-0.8,1-0.8h3.4C127.6,280.9,129.4,279.2,129.4,277.1z"/>
			<rect id="Rectangle" x="63.8" y="273.2" class="st1" width="31.2" height="7.7"/>
			<path id="Path2" serif:id="Path" class="st1" d="M99.8,291.1L99.8,291.1c0-1.4-1.1-2.4-2.4-2.4c-1.3,0-2.4,1.1-2.4,2.4v12.9
				c0,1.3,1.1,2.4,2.4,2.4c1.3,0,2.4-1,2.4-2.4v-0.1V291.1z"/>
			<path id="Path3" serif:id="Path" class="st1" d="M87.7,291.1L87.7,291.1c0-1.4-1.1-2.4-2.4-2.4c-1.3,0-2.4,1.1-2.4,2.4v12.9
				c0,1.3,1.1,2.4,2.4,2.4c1.3,0,2.4-1,2.4-2.4v-0.1V291.1z"/>
			<path id="Path4" serif:id="Path" class="st1" d="M75.8,291.1L75.8,291.1c0-1.4-1.1-2.4-2.4-2.4c-1.3,0-2.4,1.1-2.4,2.4v12.9
				c0,1.3,1.1,2.4,2.4,2.4c1.3,0,2.4-1,2.4-2.4v-0.1V291.1z"/>
			<path id="Path5" serif:id="Path" class="st1" d="M63.8,291.1L63.8,291.1c0-1.4-1.1-2.4-2.4-2.4c-1.3,0-2.4,1.1-2.4,2.4v12.9
				c0,1.3,1.1,2.4,2.4,2.4c1.3,0,2.4-1,2.4-2.4v-0.1V291.1z"/>
		</g>
	</g>
</g>
<g id="Logotipo">
	<g>
		<path id="Shape" class="st2" d="M681.1,309h-1.8c-2.1,0-3.3-1.1-3.3-3.4v-37.5c0-16.8-5.8-30-29.7-30c-6.6,0-24.7,2.3-24.7,13.2
			v3.6c0,2.8,2.2,5,4.9,5c2.7,0,4.9-2.3,4.9-5v-1.1c0-5.8,11-6.8,14.7-6.8c13.9,0,19.6,5.8,19.6,22.1v0.9h-4.2
			c-13.1,0-46.3,0.9-46.3,26.8c0,15.6,13.1,23.2,25.7,23.2c18.9,0,25.3-16.9,25.1-16.9h0.3c0,0-0.2,2.3-0.2,5.8c0,6.4,2.5,9.3,9,9.3
			h5.8c2.4,0,4.4-2.1,4.4-4.6C685.5,311.1,683.6,309,681.1,309L681.1,309z M665.8,282c0,13.5-8.7,29.1-23.2,29.1
			c-11.3,0-16.8-7.5-16.8-14.8c0-17.6,23.8-17.8,35.7-17.8h4.4V282z"/>
		<path id="Shape1" serif:id="Shape" class="st2" d="M506.1,309h-1.8c-2.1,0-3.3-1.1-3.3-3.4v-37.5c0-16.8-5.8-30-29.7-30
			c-6.6,0-24.7,2.3-24.7,13.2v3.6c0,2.8,2.2,5,4.9,5c2.7,0,4.9-2.3,4.9-5v-1.1c0-5.8,11-6.8,14.8-6.8c13.9,0,19.5,5.8,19.5,22.1v0.9
			h-4.2c-13.1,0-46.3,0.9-46.3,26.8c0,15.6,13.1,23.2,25.7,23.2c18.9,0,25.3-16.9,25.1-16.9h0.3c0,0-0.2,2.3-0.2,5.8
			c0,6.4,2.5,9.3,9,9.3h5.8c2.4,0,4.4-2.1,4.4-4.6C510.5,311.1,508.5,309,506.1,309L506.1,309z M490.7,282
			c0,13.5-8.7,29.1-23.2,29.1c-11.3,0-16.8-7.5-16.8-14.8c0-17.6,23.8-17.8,35.7-17.8h4.4V282z"/>
		<path id="Shape2" serif:id="Shape" class="st2" d="M345,309h-1.8c-2.1,0-3.3-1.1-3.3-3.4v-37.5c0-16.8-5.8-30-29.7-30
			c-6.6,0-24.7,2.3-24.7,13.2v3.6c0,2.8,2.2,5,4.9,5c2.7,0,4.9-2.3,4.9-5v-1.1c0-5.8,11-6.8,14.8-6.8c13.9,0,19.6,5.8,19.6,22.1v0.9
			h-4.2c-13.1,0-46.3,0.9-46.3,26.8c0,15.6,13.1,23.2,25.7,23.2c18.9,0,25.3-16.9,25.1-16.9h0.3c0,0-0.2,2.3-0.2,5.8
			c0,6.4,2.5,9.3,9,9.3h5.8c2.4,0,4.4-2.1,4.4-4.6C349.4,311.1,347.4,309,345,309L345,309z M329.6,282c0,13.5-8.7,29.1-23.2,29.1
			c-11.3,0-16.8-7.5-16.8-14.8c0-17.6,23.8-17.8,35.7-17.8h4.4V282z"/>
		<path id="Path6" serif:id="Path" class="st2" d="M607.6,309.3c-5.8,0-17-2.3-17-20.6v-39.8h15.2c2.4,0,4.3-2,4.3-4.4
			c0-2.4-1.9-4.4-4.3-4.4h-15.2v-17.7c0-2.9-2.3-5.2-5.1-5.2s-5.1,2.3-5.1,5.2V240h-6.3c-2.4,0-4.3,2-4.3,4.4c0,2.4,1.9,4.4,4.3,4.4
			h6.2v40.9c0,26.1,17.6,29.1,26.4,29.1c0.3,0,0.6,0,0.9,0c2.5,0,4.6-2.1,4.6-4.8S610.2,309.3,607.6,309.3z"/>
		<path id="Path7" serif:id="Path" class="st2" d="M523.9,258.7c0-7.7,6.3-11.4,16.8-11.4c5,0,13.1,2.2,13.1,7.9v1.4
			c0,2.8,2.2,5,4.8,5s4.8-2.3,4.8-5v-4.4c0-11-15.4-14.1-23-14.1c-15.2,0-27,7-27,21.2c0,25.1,42.4,22.1,42.4,39.2
			c0,8.2-7.5,12.4-16,12.4c-9.5,0-16.4-4.9-20.2-8.3c-0.8-0.7-1.8-1.1-3-1.1c-2.5,0-4.6,2.2-4.6,4.8c0,1.4,0.7,2.8,1.7,3.7
			c4.2,4.1,12.7,10.2,25.9,10.2c15.1,0,26.5-8.8,26.5-21.9C566.3,272.2,523.9,276.2,523.9,258.7z"/>
		<path id="Path8" serif:id="Path" class="st2" d="M271.2,306.6c0-2.6-2-4.7-4.5-4.7c-1.2,0-2.4,0.5-3.2,1.4
			c-4,3.2-10.9,7.1-20.2,7.1c-16,0-29.7-12-29.7-31.3c0-18.9,13.1-31.5,29.3-31.5c6.3,0,17.3,3.1,17.3,9.6v0.6c0,2.7,2.2,5,4.8,5
			c2.6,0,4.8-2.3,4.8-5v-3.2c0-12.9-18.3-16.7-27-16.7c-22.6,0-39.9,17.1-39.9,41c0,24.2,17.2,40.9,39.7,40.9
			c12.9,0,21.7-5.7,26.3-9.4C270.3,309.8,271.2,308.3,271.2,306.6L271.2,306.6z"/>
	</g>
	<g>
		<path id="Shape3" serif:id="Shape" class="st0" d="M955.5,309h-1.8c-2.1,0-3.3-1.1-3.3-3.4v-37.5c0-16.8-5.8-30-29.7-30
			c-6.6,0-24.7,2.3-24.7,13.2v3.6c0,2.8,2.2,5,4.9,5c2.7,0,4.9-2.3,4.9-5v-1.1c0-5.8,11-6.8,14.8-6.8c13.9,0,19.5,5.8,19.5,22.1v0.9
			h-4.2c-13.1,0-46.3,0.9-46.3,26.8c0,15.6,13.1,23.2,25.7,23.2c18.9,0,25.3-16.9,25.1-16.9h0.3c0,0-0.2,2.3-0.2,5.8
			c0,6.4,2.5,9.3,9,9.3h5.8c2.4,0,4.4-2.1,4.4-4.6C960,311.1,958,309,955.5,309L955.5,309z M940.2,282c0,13.5-8.7,29.1-23.2,29.1
			c-11.3,0-16.8-7.5-16.8-14.8c0-17.6,23.8-17.8,35.7-17.8h4.4L940.2,282L940.2,282z"/>
		<path id="Path9" serif:id="Path" class="st0" d="M839.1,258.7c0-7.7,6.3-11.4,16.8-11.4c5,0,13.1,2.2,13.1,7.9v1.4
			c0,2.8,2.2,5,4.8,5c2.6,0,4.8-2.3,4.8-5v-4.4c0-11-15.4-14.1-23-14.1c-15.2,0-27,7-27,21.2c0,25.1,42.5,22.1,42.5,39.2
			c0,8.2-7.5,12.4-16,12.4c-9.5,0-16.4-4.9-20.2-8.3c-0.8-0.7-1.8-1.1-3-1.1c-2.5,0-4.6,2.2-4.6,4.8c0,1.4,0.7,2.8,1.7,3.7
			c4.2,4.1,12.7,10.2,25.9,10.2c15.1,0,26.5-8.8,26.5-21.9C881.6,272.2,839.1,276.2,839.1,258.7z"/>
		<path id="Shape4" serif:id="Shape" class="st0" d="M778.8,238.1c22.2,0,40.1,17.4,40.1,40.5c0,23.6-17.9,41.3-39.9,41.3
			c-22.2,0-40.1-17.7-40.1-41.4C738.9,255.5,756.8,238.1,778.8,238.1z M778.9,310.5c16.1,0,29.3-13.7,29.3-31.9
			c0-17.8-13.3-30.9-29.3-30.9c-16.2,0-29.5,13.2-29.5,30.9C749.4,296.8,762.6,310.5,778.9,310.5z"/>
		<path id="Path10" serif:id="Path" class="st0" d="M732.3,239.2c-11.9,0-20.3,9-23.9,20.8h-0.3c0,0,0.3-2.6,0.3-5.9v-5.3
			c0-6.2-2.9-8.8-9.2-8.8h-6.8c-2.4,0-4.5,2.1-4.5,4.6c0,2.5,2,4.6,4.5,4.6h2.5c2.1,0,3.3,1.3,3.3,3.4v60.3c0,2.9,2.3,5.3,5.2,5.3
			c2.8,0,5.1-2.3,5.1-5.3v-27.7c0-5,0.6-10.3,2.1-15.2c3.3-11.4,11.2-20,21.6-20.2c2.8,0,5.1-2.3,5.1-5.3
			C737.3,241.6,735.1,239.2,732.3,239.2C732.3,239.2,732.3,239.2,732.3,239.2z"/>
	</g>
	<g>
		<path id="Path11" serif:id="Path" class="st2" d="M358.3,251.6c0-2.3-1.2-3.5-3.4-3.5h-6.5v-9.3h10.7c6.5,0,9.3,2.9,9.3,8.8v3.6
			c0,3.2-0.4,5.7-0.4,5.7h0.4c2.8-7.3,12.6-20,30.5-20c19.1,0,25.8,11.2,25.8,30.8v37.7c0,2.3,1.2,3.5,3.4,3.5h6.5v9.3h-10.8
			c-6.5,0-9.3-2.9-9.3-9.6v-38c0-12.4-1.8-23.5-16.7-23.5c-13.2,0-24.4,9.3-28,22.4c-1,3.3-1.2,6.9-1.2,10.7v35.3h-10.4V251.6z"/>
		<ellipse id="Oval1" serif:id="Oval" class="st2" cx="363.5" cy="315" rx="5.2" ry="5.4">
		</ellipse>
		<ellipse id="Oval2" serif:id="Oval" class="st2" cx="348.4" cy="243.5" rx="4.5" ry="4.7">
		</ellipse>
		<ellipse id="Oval3" serif:id="Oval" class="st2" cx="434.2" cy="313.5" rx="4.5" ry="4.7">
		</ellipse>
	</g>
</g>
</svg>
